<svg width="20" height="40" viewBox="0 0 20 40" fill="none" xmlns="http://www.w3.org/2000/svg">
<path d="M10.6831 37.0507C11.9311 36.024 13.0342 34.8517 13.9887 33.5449C16.445 30.1832 17.808 26.4363 17.7749 22.2591C17.7479 18.8777 16.5976 15.9099 14.2514 13.4517C14.2333 13.4327 14.2091 13.4187 14.1854 13.4C14.0514 13.4472 14.0844 13.569 14.0645 13.6684C13.4235 16.8642 11.6922 19.2068 8.67293 20.5082C7.51861 21.0055 6.30676 21.2292 5.06201 20.8884C3.59523 20.4869 2.70734 19.4895 2.48274 18.0104C2.12596 15.6604 2.99818 13.6966 4.71066 12.1257C6.72895 10.2745 9.1188 9.85478 11.7235 10.4868C11.9197 10.5345 12.1101 10.6069 12.3032 10.6672C12.4174 10.703 12.5459 10.8085 12.646 10.7335C12.7542 10.6532 12.6637 10.5063 12.6431 10.3941C12.346 8.77971 11.6515 7.35671 10.5822 6.12316C9.27101 4.61048 7.64875 3.54552 5.80256 2.79711C4.23703 2.16251 2.61582 1.78015 0.932521 1.64696C0.437562 1.60766 0.233551 1.39844 0.261262 0.977497C0.289552 0.545262 0.596434 0.253856 1.04762 0.273386C1.90034 0.309968 2.74024 0.445154 3.56948 0.640393C6.57087 1.34745 9.23278 2.67743 11.3631 4.95362C13.0289 6.7337 14.0072 8.8341 14.17 11.2946C14.1826 11.4864 14.2381 11.6293 14.3949 11.7415C16.6064 13.3289 17.8761 15.5549 18.6061 18.1247C19.4947 21.2545 19.3013 24.3877 18.4462 27.4962C17.3526 31.4713 15.2094 34.8047 12.1813 37.5823C12.1175 37.6407 12.0071 37.6767 12.01 37.7299C12.9834 37.409 13.9773 37.0948 14.9612 36.7521C15.461 36.5781 15.9408 36.3477 16.4333 36.1525C16.8966 35.969 17.2198 36.0849 17.3769 36.4763C17.5391 36.8798 17.3931 37.2623 16.9633 37.4455C14.7728 38.3792 12.5356 39.1833 10.2497 39.8442C9.70371 40.0021 9.34584 39.6759 9.32732 39.0385C9.26968 37.0803 9.09342 35.1335 8.78976 33.1999C8.6743 32.4619 8.53446 31.728 8.40071 30.9928C8.30554 30.4685 8.42014 30.2347 8.82899 30.1432C9.26025 30.0466 9.652 30.277 9.74783 30.7243C9.8784 31.335 9.98461 31.951 10.0896 32.5671C10.3291 33.9736 10.4898 35.3904 10.5995 36.8139C10.6054 36.8923 10.5876 36.9812 10.6814 37.0505L10.6831 37.0507ZM12.0818 11.971C9.20086 10.617 4.6646 12.3138 3.85084 16.224C3.54129 17.7114 4.24487 18.9554 5.67466 19.3873C6.62785 19.6749 7.5567 19.5591 8.438 19.1313C10.963 17.9054 12.3071 15.8195 12.7388 13.094C12.8643 12.3027 12.8262 12.265 12.0818 11.971Z" fill="#095540"/>
</svg>
