<svg width="17" height="17" viewBox="0 0 17 17" fill="none" xmlns="http://www.w3.org/2000/svg">
<g clip-path="url(#clip0_29_587)">
<path d="M17 8.50129C17.0038 13.1826 13.1859 16.9987 8.49787 17C3.803 17.0013 0.00298316 13.2043 1.7512e-06 8.50811C-0.00297966 3.81915 3.8013 0.00767874 8.49148 1.14873e-05C13.1616 -0.00765576 16.9966 3.82384 17 8.50129ZM16.267 8.50555C16.27 4.22041 12.8005 0.746291 8.50554 0.733512C4.22636 0.720733 0.727466 4.20337 0.721077 8.48255C0.714688 12.7809 4.19101 16.272 8.48254 16.2776C12.7779 16.2831 16.264 12.8026 16.267 8.50555Z" fill="#6FA089"/>
<path d="M7.90671 6.7886C7.90671 6.12964 7.90543 5.47111 7.90714 4.81216C7.90799 4.53826 8.04002 4.3747 8.25682 4.37044C8.47829 4.36618 8.62864 4.54338 8.62907 4.81897C8.63034 5.9665 8.63503 7.11403 8.62438 8.26157C8.62268 8.4639 8.68571 8.50266 8.87226 8.50096C9.97027 8.49286 11.0679 8.4967 12.1659 8.49712C12.2574 8.49712 12.3494 8.49031 12.4376 8.52864C12.608 8.60318 12.6936 8.73353 12.6672 8.91541C12.642 9.08537 12.5373 9.19527 12.3584 9.21529C12.2953 9.22253 12.231 9.22253 12.1676 9.22253C10.9137 9.22253 9.66021 9.22338 8.40631 9.22253C8.00254 9.22253 7.90842 9.12882 7.90714 8.7216C7.90501 8.07713 7.90671 7.43223 7.90671 6.78775V6.7886Z" fill="#6FA089"/>
</g>
<defs>
<clipPath id="clip0_29_587">
<rect width="17" height="17" fill="white"/>
</clipPath>
</defs>
</svg>
