<svg width="22" height="12" viewBox="0 0 22 12" fill="none" xmlns="http://www.w3.org/2000/svg">
<g clip-path="url(#clip0_19_216)">
<path d="M0 4.21008C1.67846 3.56285 3.34683 2.91875 5.01564 2.2751C6.93683 1.53426 8.85803 0.794307 10.7783 0.0512214C10.9201 -0.00342378 11.0456 -0.0222361 11.1966 0.0359924C14.7353 1.40571 18.2757 2.77049 21.8161 4.13617C21.8771 4.15991 21.9377 4.18545 22.0004 4.21098C21.9693 4.30235 21.8837 4.29832 21.8218 4.32251C18.2682 5.69491 14.7138 7.06462 11.1598 8.43613C11.0615 8.4742 10.9745 8.48674 10.8679 8.44553C7.28622 7.05969 3.70324 5.67833 0.120705 4.29563C0.0812019 4.2804 0.0333586 4.27816 0 4.21008Z" fill="#F8F8F2"/>
<path d="M17.8811 8.02792C17.8811 8.43776 17.8605 8.84939 17.8868 9.25744C17.914 9.6834 17.7319 9.98664 17.4347 10.2455C16.9506 10.6675 16.3848 10.9425 15.7953 11.1678C14.1906 11.7814 12.5218 12.0193 10.817 11.9987C9.19468 11.9789 7.60839 11.7259 6.08882 11.1207C5.55069 10.9062 5.03407 10.6464 4.58768 10.2625C4.27692 9.99559 4.10047 9.68295 4.11452 9.23862C4.14217 8.36744 4.12242 7.4949 4.12286 6.62237C4.12286 6.445 4.20318 6.38722 4.36383 6.44903C6.48166 7.26557 8.59993 8.08077 10.7156 8.90269C10.9127 8.97928 11.0851 8.98197 11.2831 8.90493C13.3996 8.08346 15.5188 7.26916 17.6375 6.45306C17.7999 6.39035 17.8812 6.44545 17.8815 6.61834C17.8815 7.08775 17.8815 7.55761 17.8815 8.02702L17.8811 8.02792Z" fill="#F8F8F2"/>
<path d="M20.8193 7.33993C20.5151 7.23422 20.2302 7.19436 19.944 7.31036C19.8501 7.34844 19.8286 7.29379 19.829 7.21227C19.829 6.71285 19.8308 6.21343 19.8277 5.71401C19.8273 5.61905 19.8782 5.58635 19.9524 5.55813C20.1982 5.46542 20.4422 5.36777 20.6889 5.27685C20.7394 5.25803 20.8201 5.19846 20.8201 5.33104C20.8193 5.99261 20.8201 6.65417 20.8201 7.33903L20.8193 7.33993Z" fill="#F8F8F2"/>
<path d="M20.34 7.73051C20.7398 7.73633 21.0796 8.08928 21.0752 8.49375C21.0708 8.90941 20.7148 9.25744 20.3066 9.24579C19.8997 9.23415 19.5881 8.89597 19.5929 8.4709C19.5977 8.05524 19.9313 7.72468 20.34 7.73051Z" fill="#F8F8F2"/>
</g>
<defs>
<clipPath id="clip0_19_216">
<rect width="22" height="12" fill="white"/>
</clipPath>
</defs>
</svg>
