<svg width="17" height="15" viewBox="0 0 17 15" fill="none" xmlns="http://www.w3.org/2000/svg">
<g clip-path="url(#clip0_29_590)">
<path d="M6.55726 0.00345234C7.16332 0.00345234 7.76938 0.0136064 8.37514 0.00160615C10.6422 -0.0436256 12.0977 1.28932 12.8166 2.99305C13.65 4.96817 13.199 7.29376 11.6871 8.80148C10.8446 9.6418 9.82185 10.0677 8.63674 10.0797C8.28834 10.0834 7.93994 10.0843 7.59154 10.0784C7.43312 10.0757 7.31415 10.1335 7.20581 10.2495C6.48382 11.0228 5.7594 11.7938 5.03316 12.5628C4.64319 12.9757 4.02681 12.8582 3.85837 12.3437C3.82894 12.2539 3.82924 12.1625 3.82894 12.0708C3.82803 11.4615 3.8259 10.8523 3.83045 10.243C3.83167 10.0883 3.78523 10.0043 3.62499 9.96119C1.69969 9.44211 0.584685 8.12916 0.14797 6.20789C-0.247167 4.46939 0.151916 2.88843 1.29939 1.54656C2.16038 0.539463 3.28266 0.00929861 4.6183 0.00376004C5.26472 0.000990748 5.91084 0.00314464 6.55726 0.00314464V0.00345234Z" fill="#6FA089"/>
<path d="M8.37191 10.9171C9.51939 10.9306 10.6025 10.6863 11.5455 10.0004C12.8771 9.0315 13.6765 7.71024 13.9612 6.07236C13.99 5.90651 14.004 5.7382 14.021 5.5705C14.0301 5.48004 14.0486 5.43789 14.1606 5.46435C15.4464 5.76959 16.2935 6.58068 16.7505 7.81147C17.349 9.42258 16.8413 11.2475 15.5351 12.2756C15.2046 12.5359 14.8234 12.698 14.4331 12.8393C14.2137 12.9187 14.1964 12.9387 14.1964 13.166C14.1961 13.5553 14.1964 13.9442 14.1964 14.3335C14.1964 14.6264 14.0619 14.8538 13.831 14.9513C13.5903 15.0532 13.3585 14.9962 13.1472 14.7744C12.6353 14.2365 12.1224 13.6993 11.6168 13.1556C11.4954 13.0251 11.364 12.9768 11.1895 12.9768C10.5943 12.9777 9.99708 12.9811 9.4244 12.7777C8.63625 12.4977 8.06479 11.9546 7.63505 11.2448C7.52914 11.07 7.6047 10.9297 7.81077 10.9189C7.99711 10.9094 8.18436 10.9168 8.37131 10.9168L8.37191 10.9171Z" fill="#6FA089"/>
</g>
<defs>
<clipPath id="clip0_29_590">
<rect width="17" height="15" fill="white"/>
</clipPath>
</defs>
</svg>
