<svg width="29" height="21" viewBox="0 0 29 21" fill="none" xmlns="http://www.w3.org/2000/svg">
<path d="M28.75 17.4664C28.75 18.0773 28.5743 18.6436 28.2927 19.1419L19.2941 9.29746L28.1952 1.68289C28.5414 2.22016 28.75 2.85128 28.75 3.53329V17.4664ZM14.5 11.0849L26.8856 0.488701C26.3773 0.216645 25.805 0.0498047 25.1876 0.0498047H3.81248C3.19433 0.0498047 2.62181 0.216645 2.11562 0.488701L14.5 11.0849ZM17.953 10.4439L15.0861 12.8982C14.9184 13.041 14.7096 13.1123 14.5 13.1123C14.2903 13.1123 14.0815 13.041 13.9138 12.8982L11.0463 10.4437L1.93382 20.414C2.48002 20.7491 3.12014 20.9498 3.81242 20.9498H25.1876C25.8797 20.9498 26.5202 20.7491 27.0662 20.414L17.953 10.4439ZM0.80495 1.68283C0.458752 2.22011 0.25 2.85123 0.25 3.53329V17.4664C0.25 18.0773 0.42492 18.6437 0.707505 19.142L9.70507 9.2958L0.80495 1.68283Z" fill="white"/>
</svg>
