<svg width="18" height="12" viewBox="0 0 18 12" fill="none" xmlns="http://www.w3.org/2000/svg">
<path d="M8.98311 11.9986C7.0658 11.9986 5.14799 12.0026 3.23069 11.9971C1.70258 11.9931 0.437697 11.2815 0.0817877 10.2387C-0.341719 8.99765 0.930337 7.69506 2.72269 7.5292C2.9434 7.50884 3.16309 7.4999 3.38432 7.4999C7.17693 7.4999 10.969 7.4999 14.7616 7.50039C16.6329 7.50039 18.0667 8.55368 17.9976 9.87365C17.9438 10.9026 16.7174 11.8412 15.2696 11.9688C15.0315 11.9897 14.7954 11.9991 14.5568 11.9991C12.6989 11.9991 10.841 11.9986 8.98311 11.9986Z" fill="#C8D750"/>
<path d="M9.0402 0.000662316C10.9316 0.000662316 12.8226 -0.000827894 14.714 0.000662316C16.4294 0.00215253 17.7577 0.827729 17.9779 2.02437C18.1857 3.15494 16.9029 4.32227 15.2981 4.46831C15.0524 4.49066 14.8072 4.5001 14.5599 4.5001C10.7945 4.49961 7.02948 4.5001 3.264 4.49911C1.392 4.49961 -0.0356658 3.47434 0.000678655 2.16097C0.0298566 1.11832 1.26045 0.160612 2.7306 0.0299698C2.96812 0.00910684 3.20462 0.000165579 3.44316 0.000165579C5.30901 0.000165579 7.17435 0.000662316 9.0402 0.000662316Z" fill="#C8D750"/>
</svg>
