<svg width="14" height="14" viewBox="0 0 14 14" fill="none" xmlns="http://www.w3.org/2000/svg">
<path d="M13.014 5.45395C11.4939 4.3137 9.66446 4.98264 8.38281 5.80732C9.3523 4.14498 10.2669 1.73856 8.46091 0.383597C7.76919 -0.135301 6.35184 -0.293088 5.39192 0.986283C4.23891 2.52294 4.93563 4.37586 5.77261 5.65955C4.08636 4.72649 1.66241 3.8672 0.354576 5.69484C-0.147018 6.39589 -0.269513 7.81438 1.03399 8.74721C2.52056 9.81096 4.25075 9.20418 5.5028 8.40272C4.60936 10.078 3.86755 12.3825 5.63304 13.6461C6.33408 14.1477 7.75257 14.2702 8.68541 12.9667C9.7355 11.4993 9.1574 9.7948 8.37143 8.54685C10.0237 9.47535 12.3097 10.2657 13.6171 8.52317C14.136 7.83146 14.2938 6.41411 13.0144 5.45418L13.014 5.45395Z" fill="#095540"/>
</svg>
