<svg width="13" height="11" viewBox="0 0 13 11" fill="none" xmlns="http://www.w3.org/2000/svg">
<path d="M13 3.86616C13.0013 4.55762 12.7687 5.11515 12.4578 5.64697C11.9855 6.45442 11.3642 7.14998 10.6946 7.80666C9.53139 8.94764 8.24543 9.94605 6.88983 10.8628C6.61728 11.0471 6.38089 11.0451 6.10834 10.8602C4.67082 9.88557 3.30807 8.82408 2.09421 7.59303C1.42791 6.91734 0.816288 6.19975 0.384584 5.35557C0.129445 4.85701 -0.0319413 4.33534 0.00533609 3.77047C0.0642657 2.87488 0.382798 2.07434 0.961379 1.37468C1.48594 0.740248 2.14332 0.283165 2.96923 0.104523C4.31456 -0.186662 5.48534 0.123316 6.42888 1.1254C6.49161 1.19215 6.51661 1.18545 6.57442 1.12259C7.17242 0.470664 7.91842 0.0924265 8.81866 0.0196303C10.2593 -0.0968004 11.3712 0.472608 12.2013 1.58442C12.7212 2.28063 12.9828 3.06973 13 3.86595V3.86616Z" fill="#C8D750"/>
</svg>
