<svg width="8" height="10" viewBox="0 0 8 10" fill="none" xmlns="http://www.w3.org/2000/svg">
<path d="M4 0C5.29949 0 6.35294 1.01753 6.35294 2.27273L6.35335 3.64274C6.68659 3.66058 6.91211 3.71779 7.14553 3.83837C7.42192 3.98115 7.64305 4.19474 7.79086 4.46171C7.94625 4.74235 8 5.01119 8 5.48358V8.15278C8 8.62517 7.94625 8.89401 7.79086 9.17466C7.64305 9.44162 7.42192 9.65522 7.14553 9.79799C6.85498 9.94808 6.57665 10 6.08758 10H1.91242C1.42335 10 1.14502 9.94808 0.854473 9.79799C0.578083 9.65522 0.35695 9.44162 0.209135 9.17466C0.0537475 8.89401 0 8.62517 0 8.15278V5.48358C0 5.01119 0.0537475 4.74235 0.209135 4.46171C0.35695 4.19474 0.578083 3.98115 0.854473 3.83837C1.08794 3.71777 1.31352 3.66055 1.64688 3.64273L1.64706 2.27273C1.64706 1.01753 2.70051 0 4 0ZM6.08758 4.31818H1.91242C1.49288 4.31818 1.34074 4.36038 1.18737 4.43961C1.03399 4.51884 0.913619 4.6351 0.831592 4.78325C0.749565 4.9314 0.705882 5.07835 0.705882 5.48358V8.15278C0.705882 8.55802 0.749565 8.70496 0.831592 8.85311C0.913619 9.00126 1.03399 9.11753 1.18737 9.19676C1.34074 9.27599 1.49288 9.31818 1.91242 9.31818H6.08758C6.50712 9.31818 6.65926 9.27599 6.81263 9.19676C6.96601 9.11753 7.08638 9.00126 7.16841 8.85311C7.25044 8.70496 7.29412 8.55802 7.29412 8.15278V5.48358C7.29412 5.07835 7.25044 4.9314 7.16841 4.78325C7.08638 4.6351 6.96601 4.51884 6.81263 4.43961C6.65926 4.36038 6.50712 4.31818 6.08758 4.31818ZM4 5.68182C4.38985 5.68182 4.70588 5.98708 4.70588 6.36364C4.70588 6.66043 4.50956 6.91293 4.23551 7.00659L4.23529 7.72727C4.23529 7.85279 4.12995 7.95455 4 7.95455C3.87005 7.95455 3.76471 7.85279 3.76471 7.72727L3.76473 7.00667C3.49055 6.91307 3.29412 6.66051 3.29412 6.36364C3.29412 5.98708 3.61015 5.68182 4 5.68182ZM4 0.681818C3.09035 0.681818 2.35294 1.39409 2.35294 2.27273V3.63636H5.64706V2.27273C5.64706 1.39409 4.90965 0.681818 4 0.681818Z" fill="#6FA089"/>
</svg>
