<svg width="39" height="25" viewBox="0 0 39 25" fill="none" xmlns="http://www.w3.org/2000/svg">
<g clip-path="url(#clip0_19_288)">
<path d="M30.8043 0.273169C26.8375 0.218204 23.2726 2.7517 20.9336 5.84143C20.693 4.55966 20.0256 3.42153 18.9987 2.50179C17.2987 0.980377 14.6461 0.0452497 11.4385 0.000545311C7.67886 -0.0507548 4.26415 1.81437 2.74715 4.0789L2.88354 4.31415C4.49681 1.77113 7.80795 0.696761 11.0571 0.741465C13.8446 0.780307 16.3761 1.7125 17.8479 3.48749C17.9164 3.56957 17.9777 3.65751 18.0411 3.74399C18.7486 4.69963 19.1643 5.87734 19.176 7.2749L19.1614 8.36466C14.8343 8.30603 0.132516 8.57499 -0.00022111 18.2238C-0.0366874 20.8826 2.14035 24.6913 7.06039 24.7594C14.8817 24.8672 18.2103 15.919 19.1191 11.4852L18.9776 21.8493C18.9601 22.5374 18.9418 23.1449 18.9229 23.6807L18.8704 24.9676L20.9139 24.9961L20.841 23.1677H20.8527C20.8461 22.7719 20.8432 22.3425 20.8432 21.872L21.0467 6.99275C21.0467 6.94511 21.0401 6.90041 21.0401 6.8535C21.0387 6.69081 21.0241 6.53178 21.0095 6.37275C23.4877 2.96056 26.9768 0.71948 30.4389 0.767115C36.6076 0.852127 35.3269 6.82639 37.5433 6.85717C38.2026 6.86596 38.8123 6.04296 38.8262 5.04334C38.8568 2.79787 34.8776 0.329599 30.8051 0.273169H30.8043ZM19.1424 9.76808C18.9178 12.9817 15.7211 24.4128 7.6701 24.3014C4.37428 24.256 1.95291 21.4235 2.00251 17.7848C2.12795 8.60284 15.2026 8.54421 19.1585 8.59844L19.1424 9.76808Z" fill="#F8F8F2"/>
<path d="M18.9041 24.1807H18.9165L18.9231 23.6802C18.9165 23.859 18.9107 24.018 18.9041 24.1807Z" fill="#F8F8F2"/>
<path d="M20.8267 24.2069H20.8792C20.8675 23.8903 20.8588 23.5444 20.8529 23.167H20.8412L20.8267 24.2069Z" fill="#F8F8F2"/>
<path d="M24.113 22.5456H23.892L23.356 20.9524H23.6331L24.0094 22.1426L24.3923 20.9502H24.5885L24.9714 22.1426L25.3477 20.9524H25.6205L25.0823 22.5456H24.8642L24.4901 21.3665L24.1145 22.5456H24.113Z" fill="#F8F8F2"/>
<path d="M27.5 22.5361H26.3491V20.9517H27.4708V21.1803H26.5971V21.5761H27.3089V21.8047H26.5971V22.3074H27.5V22.5361Z" fill="#F8F8F2"/>
<path d="M29.3466 22.5361H28.2592V20.9517H28.5094V22.3074H29.3474L29.3466 22.5361Z" fill="#F8F8F2"/>
<path d="M31.1641 22.5361H30.0767V20.9517H30.3268V22.3074H31.1648V22.5361H31.1641Z" fill="#F8F8F2"/>
<path d="M32.1378 22.5361H31.8942V20.9517H32.11L32.9998 22.0993V20.9517H33.2434V22.5361H33.0341L32.1378 21.384V22.5361Z" fill="#F8F8F2"/>
<path d="M35.252 22.5361H34.1011V20.9517H35.2228V21.1803H34.3491V21.5761H35.0609V21.8047H34.3491V22.3074H35.252V22.5361Z" fill="#F8F8F2"/>
<path d="M36.5094 22.5654C36.2687 22.5654 36.0718 22.509 35.9171 22.3954V22.1257C35.9784 22.1799 36.0637 22.2283 36.1717 22.2708C36.2796 22.3111 36.3876 22.3317 36.4962 22.3317C36.6049 22.3317 36.6902 22.3104 36.7588 22.2686C36.8273 22.2261 36.8609 22.169 36.8609 22.0964C36.8609 22.0392 36.8376 21.9901 36.7909 21.9491C36.7726 21.9322 36.7457 21.9169 36.7099 21.9015C36.6662 21.8802 36.5947 21.8553 36.494 21.8267L36.4627 21.8179C36.3774 21.7937 36.3088 21.7717 36.2577 21.752C36.2176 21.7373 36.1644 21.7109 36.1002 21.6728C35.9923 21.6047 35.9383 21.4984 35.9383 21.3533C35.9383 21.2221 35.9901 21.1173 36.0929 21.0389C36.1957 20.9605 36.335 20.9209 36.5108 20.9209C36.7012 20.9209 36.8696 20.9649 37.0155 21.0521V21.3013C36.8551 21.203 36.688 21.1539 36.5152 21.1539C36.4102 21.1539 36.3299 21.1723 36.2752 21.2096C36.2205 21.247 36.1928 21.2954 36.1928 21.3555C36.1928 21.4068 36.2235 21.4544 36.2855 21.4984C36.2942 21.5043 36.3073 21.5108 36.3234 21.5174C36.3402 21.524 36.3584 21.5314 36.3795 21.5387C36.4007 21.546 36.4153 21.5512 36.4248 21.5541L36.6049 21.6061C36.7143 21.6391 36.8106 21.6787 36.893 21.7234C37.033 21.7989 37.1067 21.9213 37.1162 22.0898C37.1162 22.2364 37.0585 22.3514 36.9426 22.4357C36.8266 22.52 36.6829 22.5625 36.5101 22.5625L36.5094 22.5654Z" fill="#F8F8F2"/>
<path d="M38.3939 22.5654C38.1533 22.5654 37.9563 22.509 37.8017 22.3954V22.1257C37.863 22.1799 37.9483 22.2283 38.0563 22.2708C38.1642 22.3111 38.2721 22.3317 38.3808 22.3317C38.4895 22.3317 38.5748 22.3104 38.6434 22.2686C38.7119 22.2261 38.7455 22.169 38.7455 22.0964C38.7455 22.0392 38.7221 21.9901 38.6755 21.9491C38.6572 21.9322 38.6302 21.9169 38.5945 21.9015C38.5507 21.8802 38.4793 21.8553 38.3786 21.8267L38.3473 21.8179C38.2619 21.7937 38.1934 21.7717 38.1423 21.752C38.1022 21.7373 38.049 21.7109 37.9848 21.6728C37.8768 21.6047 37.8229 21.4984 37.8229 21.3533C37.8229 21.2221 37.8747 21.1173 37.9775 21.0389C38.0803 20.9605 38.2196 20.9209 38.3954 20.9209C38.5858 20.9209 38.7542 20.9649 38.9001 21.0521V21.3013C38.7396 21.203 38.5726 21.1539 38.3998 21.1539C38.2948 21.1539 38.2145 21.1723 38.1598 21.2096C38.1051 21.247 38.0774 21.2954 38.0774 21.3555C38.0774 21.4068 38.108 21.4544 38.17 21.4984C38.1788 21.5043 38.1919 21.5108 38.208 21.5174C38.2247 21.524 38.243 21.5314 38.2641 21.5387C38.2853 21.546 38.2999 21.5512 38.3093 21.5541L38.4895 21.6061C38.5989 21.6391 38.6952 21.6787 38.7776 21.7234C38.9176 21.7989 38.9913 21.9213 39.0007 22.0898C39.0007 22.2364 38.9431 22.3514 38.8272 22.4357C38.7112 22.52 38.5675 22.5625 38.3947 22.5625L38.3939 22.5654Z" fill="#F8F8F2"/>
<path d="M23.6185 24.9751H23.3552L24.0444 23.3818H24.2837L24.9729 24.9751H24.7074L24.536 24.5815H23.7884L23.6192 24.9751H23.6185ZM24.1611 23.6962L23.873 24.3617H24.4492L24.1611 23.6962Z" fill="#F8F8F2"/>
<path d="M26.6911 25C26.4556 25 26.2572 24.9231 26.0967 24.7692C25.9392 24.6138 25.8604 24.4166 25.8604 24.1785C25.8604 23.9403 25.9392 23.7439 26.0967 23.59C26.2528 23.4346 26.4512 23.3569 26.6911 23.3569C26.8516 23.3569 26.9945 23.3921 27.1193 23.4632V23.7146C26.9916 23.6318 26.8494 23.59 26.6933 23.59C26.5285 23.59 26.3899 23.6457 26.2791 23.7578C26.1682 23.8699 26.115 24.0084 26.115 24.1785C26.115 24.3485 26.1704 24.4899 26.282 24.6021C26.3929 24.712 26.5336 24.767 26.7028 24.767C26.883 24.767 27.0332 24.7186 27.1535 24.6218V24.8732C27.0215 24.9575 26.8676 25 26.6919 25H26.6911Z" fill="#F8F8F2"/>
<path d="M28.3037 24.9751H28.0404L28.7296 23.3818H28.9688L29.6581 24.9751H29.3926L29.2212 24.5815H28.4736L28.3044 24.9751H28.3037ZM28.8463 23.6962L28.5582 24.3617H29.1344L28.8463 23.6962Z" fill="#F8F8F2"/>
<path d="M31.0394 24.9707H30.4829V23.3862H31.0394C31.2918 23.3862 31.4982 23.4603 31.6586 23.6083C31.8191 23.7563 31.8993 23.9461 31.8993 24.1785C31.8993 24.4108 31.8191 24.6035 31.6586 24.7508C31.4996 24.8974 31.2932 24.9699 31.0394 24.9699V24.9707ZM30.7309 23.6149V24.742H31.0168C31.2152 24.742 31.3691 24.6915 31.4785 24.5903C31.5893 24.4877 31.6448 24.3499 31.6448 24.1785C31.6448 24.007 31.5893 23.8692 31.4785 23.7666C31.3691 23.6654 31.2152 23.6149 31.0168 23.6149H30.7309Z" fill="#F8F8F2"/>
<path d="M34.1091 24.9707H32.9583V23.3862H34.08V23.6149H33.2062V24.0106H33.918V24.2393H33.2062V24.742H34.1091V24.9707Z" fill="#F8F8F2"/>
<path d="M35.365 24.9707H35.1171V23.3862H35.3694L35.8807 24.0993L36.3876 23.3862H36.6355V24.9707H36.3876V23.7666L35.9485 24.3639H35.8041L35.365 23.7666V24.9707Z" fill="#F8F8F2"/>
<path d="M38.3429 24.9707H38.0949V24.2532L37.4845 23.3862H37.7725L38.2233 24.0268L38.674 23.3862H38.9533L38.3429 24.2466V24.9707Z" fill="#F8F8F2"/>
</g>
<defs>
<clipPath id="clip0_19_288">
<rect width="39" height="25" fill="white"/>
</clipPath>
</defs>
</svg>
