<svg width="14" height="14" viewBox="0 0 14 14" fill="none" xmlns="http://www.w3.org/2000/svg">
<path d="M7.00033 14C3.06194 13.9908 -0.0305579 10.7798 -0.000143794 6.91535C0.0302703 3.10171 3.25535 -0.0828659 7.16048 0.00167601C10.7648 0.0795686 14.0241 3.07701 13.9999 7.0652C13.9766 10.875 10.8406 14.0002 7.00057 14.0002L7.00033 14ZM5.18166 7.11032C5.18166 7.91751 5.18119 8.72469 5.18237 9.53188C5.18237 9.60217 5.18879 9.67342 5.20115 9.74276C5.24035 9.96242 5.40145 10.0669 5.6191 10.0225C5.7151 10.0028 5.79683 9.95388 5.87905 9.90567C7.21988 9.11962 8.55882 8.33048 9.90298 7.54989C10.0774 7.44873 10.1926 7.30648 10.3031 7.14998C10.3304 7.11151 10.3252 7.08467 10.2979 7.05119C10.1979 6.92818 10.0952 6.80754 9.95644 6.72608C8.58686 5.92317 7.21703 5.12097 5.84768 4.3183C5.76832 4.27176 5.6873 4.2321 5.59629 4.21262C5.4283 4.17676 5.28954 4.24801 5.22491 4.40736C5.18831 4.4976 5.1819 4.59306 5.1819 4.689C5.18166 5.49619 5.1819 6.30337 5.1819 7.11056L5.18166 7.11032Z" fill="#F8F8F2"/>
</svg>
