<svg width="28" height="28" viewBox="0 0 28 28" fill="none" xmlns="http://www.w3.org/2000/svg">
<path d="M14.0123 6.97538e-07C21.759 0.00241146 28.0067 6.26797 28 14.0268C27.9932 21.7682 21.7209 28.0096 13.9578 28C6.23519 27.9908 -0.0057818 21.718 4.01964e-06 13.9728C0.00578984 6.24434 6.27087 -0.00241006 14.0123 6.97538e-07ZM13.9998 16.452C11.3552 16.452 8.71056 16.45 6.06595 16.4549C5.81282 16.4549 5.44591 16.3363 5.33549 16.5142C5.22605 16.6902 5.47291 16.9828 5.57416 17.2186C7.5071 21.7315 12.5769 23.9383 17.1588 22.2378C19.8097 21.2537 21.5922 19.3772 22.6279 16.7615C22.7397 16.479 22.6741 16.4457 22.4022 16.4467C19.6014 16.4549 16.8006 16.452 13.9998 16.452ZM21.5035 9.31662C21.5054 8.49985 21.1491 7.96948 20.5734 7.74432C19.9968 7.51867 19.4191 7.65319 18.9948 8.14933C18.8372 8.33351 18.7745 8.29253 18.6366 8.13583C18.0836 7.50662 17.1834 7.47673 16.5831 8.05145C16.0976 8.51624 15.9886 9.18547 16.3083 9.89423C16.8025 10.9892 17.7181 11.6719 18.6954 12.29C18.801 12.3571 18.8864 12.3272 18.9823 12.2679C19.7036 11.8204 20.3743 11.3127 20.894 10.6329C21.233 10.1893 21.4919 9.70764 21.5035 9.31662ZM6.4941 9.12954C6.49218 9.52683 6.63055 9.88411 6.82872 10.2178C7.36535 11.1213 8.17055 11.7394 9.04517 12.2828C9.16763 12.359 9.2549 12.3223 9.35808 12.2577C9.72066 12.0316 10.0731 11.7915 10.3981 11.5133C10.9887 11.0066 11.5157 10.4497 11.7679 9.69028C12.0191 8.93282 11.7708 8.21104 11.1425 7.84509C10.5099 7.47673 9.85518 7.59533 9.3036 8.21008C9.12472 8.40921 9.08567 8.22358 9.01142 8.14354C8.56543 7.6638 8.00131 7.51916 7.4261 7.74528C6.84897 7.9719 6.49459 8.49937 6.49507 9.13002L6.4941 9.12954Z" fill="#095540"/>
<path d="M6.86399 17.5084H21.1063C21.0185 17.7991 20.8387 18.0272 20.6781 18.261C20.1916 18.9698 19.5991 19.5797 18.9212 20.1086C18.7823 20.2171 18.6883 20.2436 18.5234 20.126C15.7983 18.1824 12.2197 18.1839 9.47918 20.1197C9.37841 20.1911 9.30416 20.2769 9.15951 20.1674C8.21835 19.4543 7.45366 18.5923 6.86399 17.5084Z" fill="#095540"/>
<path d="M17.7447 20.8637C15.2279 22.0657 12.7602 22.0609 10.2627 20.8637C12.3253 19.3565 15.604 19.3179 17.7447 20.8637Z" fill="#095540"/>
</svg>
