<svg width="28" height="28" viewBox="0 0 28 28" fill="none" xmlns="http://www.w3.org/2000/svg">
<path d="M13.9909 4.37281e-07C6.24312 0.00190939 -0.00572282 6.26565 3.93306e-06 14.0236C0.00620791 21.7663 6.27652 28.0091 14.0391 28C21.7626 27.9914 28.0052 21.7205 28 13.9759C27.9947 6.24656 21.7316 -0.00190851 13.9909 4.37281e-07ZM14.0148 22.2655V22.2669C12.8279 22.2669 11.6415 22.2669 10.4547 22.2669C10.3921 22.2669 10.3296 22.2626 10.2676 22.2598C8.87694 22.2025 7.77788 21.019 7.79459 19.5973C7.81081 18.1923 8.92896 17.0092 10.3005 16.9997C12.7673 16.983 15.2346 16.9801 17.7019 17.0001C19.2872 17.013 20.5094 18.607 20.1634 20.158C19.8852 21.4046 18.8873 22.2412 17.6059 22.2617C16.409 22.2808 15.2117 22.2655 14.0148 22.2655ZM19.4609 13.0949C18.0082 13.082 16.7722 12.0841 16.4525 10.6667C16.3526 10.2248 16.525 10.0038 16.9698 10.0038C17.0528 10.0038 17.1368 10.011 17.2194 10.0024C17.385 9.98524 17.4236 10.0649 17.4408 10.2181C17.5492 11.2017 18.3156 11.9682 19.2638 12.056C20.2531 12.1476 21.1427 11.5468 21.4486 10.6066C21.5135 10.4081 21.4161 10.1146 21.6357 10.0234C21.8227 9.9461 22.0685 10.0248 22.2837 9.99908C22.5696 9.96472 22.5849 10.1136 22.5605 10.3288C22.3806 11.9075 21.0353 13.1088 19.4609 13.0949ZM8.51711 13.094C6.94082 13.0887 5.64037 11.92 5.43994 10.3379C5.40892 10.094 5.45378 9.95899 5.73868 10.001C5.87088 10.0206 6.01118 10.0215 6.14337 10.001C6.40681 9.95994 6.47171 10.0855 6.50273 10.3226C6.62251 11.2418 7.40946 11.981 8.3224 12.0574C9.29547 12.139 10.1898 11.5334 10.4995 10.6286C10.5702 10.4224 10.4108 10.0998 10.7128 10.0177C10.9357 9.95708 11.1886 10.0158 11.4273 10.001C11.6134 9.98953 11.6253 10.0788 11.6148 10.2272C11.5008 11.8341 10.1354 13.0992 8.51711 13.094ZM21.7597 8.63609C20.0288 8.58311 18.423 8.13881 17.0018 7.11513C16.6219 6.8412 16.5896 6.52606 16.9049 6.16972C16.9326 6.1387 16.9641 6.11007 16.986 6.07523C17.0791 5.92729 17.1669 5.92586 17.3058 6.03944C18.6606 7.14568 20.2498 7.57567 21.9645 7.60335C22.2585 7.60812 22.3572 7.6902 22.3763 7.97511C22.4217 8.64181 22.4326 8.64134 21.7597 8.63609ZM6.2665 8.63656C5.57547 8.64134 5.58168 8.64181 5.62415 8.00088C5.64228 7.72647 5.70575 7.60191 6.04077 7.60001C7.57745 7.59094 9.01582 7.21678 10.3053 6.34392C10.4986 6.21315 10.6666 5.91965 10.8775 5.97597C11.0727 6.02846 11.2006 6.30908 11.3738 6.47229C11.5385 6.62692 11.5108 6.71807 11.3404 6.85551C9.85765 8.05004 8.14201 8.56832 6.2665 8.63656Z" fill="#095540"/>
</svg>
