<svg width="81" height="16" viewBox="0 0 81 16" fill="none" xmlns="http://www.w3.org/2000/svg">
<g clip-path="url(#clip0_19_37)">
<path d="M25.9507 1.27007C27.8165 1.0225 29.722 1.30216 31.5985 1.17838C32.5965 1.11419 33.5727 1.00875 34.6032 0.985829C37.3367 0.921645 40.063 0.811616 42.8037 0.834538C46.1772 0.862046 49.5652 0.903308 52.8808 1.16004C55.4408 1.35718 58.0297 1.47179 60.5896 1.68268C63.5835 1.93024 66.5158 2.24657 69.3289 2.7142C71.8201 3.1268 74.3331 3.57609 76.2747 4.36463C78.766 5.37322 79.8652 6.42766 78.1838 7.94973C77.2546 8.79328 75.5444 9.30216 73.9281 9.86147C72.0805 10.4987 69.958 10.9709 67.8573 11.4523C63.1279 12.5388 58.0947 13.3136 52.9206 13.96C49.6954 14.3635 46.4195 14.6981 43.0749 14.8219C39.7557 14.9457 36.4075 14.9778 33.0593 14.8449C31.3201 14.7761 29.5593 14.799 27.8273 14.6523C25.2999 14.4368 22.74 14.2764 20.2379 14.0242C16.6908 13.662 13.2197 13.1807 10.074 12.4105C7.83946 11.8603 5.55431 11.2873 3.95615 10.4254C1.55529 9.12795 1.86263 8.12394 4.02123 6.73024C5.79295 5.58869 8.37459 4.86434 11.2021 4.23167C13.7078 3.67236 16.2786 3.19099 19.0049 2.84256C19.757 2.74629 20.462 2.595 21.149 2.40703C21.9264 2.19614 21.4528 1.99442 21.3551 1.79729C21.2828 1.65517 20.9502 1.74228 20.7043 1.77437C16.6836 2.28783 12.7786 2.90216 9.19898 3.83282C6.96807 4.41047 4.87455 5.04314 3.31254 5.92795C2.2242 6.54686 1.21903 7.19786 0.571806 7.90388C-0.599696 9.18755 0.0836803 10.3704 2.15912 11.434C2.83165 11.7778 3.57288 12.0896 4.4045 12.3692C4.79862 12.5022 4.75884 12.5113 4.59975 12.6947C4.55998 12.7406 4.64676 12.8277 4.74438 12.8643C5.12042 12.9927 5.48922 13.1715 5.92673 13.2082C8.72532 13.4557 11.2925 13.9921 14.1056 14.2351C16.9475 14.4827 19.7172 14.8678 22.5266 15.1795C23.6981 15.3079 24.9022 15.3858 26.0773 15.5096C28.178 15.7297 30.3403 15.7847 32.4736 15.8901C34.8346 16.0093 37.2319 16.0231 39.6183 15.9726C42.5398 15.913 45.4216 15.7205 48.3033 15.5142C50.1329 15.3812 51.8684 15.1245 53.6257 14.9045C56.5508 14.5377 59.3892 14.0609 62.1733 13.5474C65.9228 12.8552 69.4157 11.9749 72.9338 11.1085C75.501 10.4758 77.6451 9.7056 79.283 8.69242C80.8812 7.70216 81.391 6.62938 80.6968 5.4695C80.1472 4.55259 78.7985 3.87867 77.0304 3.28726C74.4018 2.40703 71.3573 1.86147 68.2116 1.44428C64.3066 0.92623 60.2678 0.609899 56.1712 0.39901C51.8974 0.178953 47.6199 0.0505848 43.3172 0.00932407C38.2334 -0.0365219 33.222 0.128522 28.3516 0.761187C27.4947 0.871215 26.6197 0.976661 25.9507 1.27465V1.27007Z" fill="#C8D750"/>
</g>
<defs>
<clipPath id="clip0_19_37">
<rect width="81" height="16" fill="white" transform="matrix(1 0 0 -1 0 16)"/>
</clipPath>
</defs>
</svg>
