<svg width="26" height="26" viewBox="0 0 26 26" fill="none" xmlns="http://www.w3.org/2000/svg">
<g clip-path="url(#clip0_24_10)">
<path d="M10.7409 12.4792C11.1661 12.5923 11.5518 12.596 11.9387 12.5814C12.1298 12.5741 12.2942 12.6172 12.3529 12.8276C12.4069 13.0215 12.3064 13.1498 12.1507 13.2501C10.1861 14.5163 8.13726 15.5795 5.86942 16.1151C5.23682 16.2647 4.59608 16.3516 3.94547 16.3309C3.74332 16.3248 3.60681 16.2312 3.60042 16.0087C3.59403 15.7881 3.71602 15.6689 3.9234 15.6695C5.58187 15.6774 7.1079 15.1261 8.60547 14.4555C9.35076 14.1218 10.074 13.7388 10.7804 13.3224C10.8199 13.2987 10.8745 13.2878 10.8733 13.2142C10.6392 13.1461 10.3993 13.0878 10.1669 13.0069C9.7998 12.8792 9.74345 12.661 9.99034 12.3516C10.7165 11.4434 11.5959 10.7169 12.5207 10.0495C14.7619 8.43001 17.1953 7.18198 19.6734 6.02332C21.3197 5.25371 22.9938 4.55706 24.6837 3.89991C24.7621 3.86952 24.8405 3.83912 24.9166 3.80934C24.898 3.71086 24.8213 3.69384 24.7673 3.65979C22.8608 2.44703 20.8305 1.55706 18.6115 1.23548C15.2539 0.748546 12.1403 1.41298 9.36471 3.53031C9.22122 3.63973 9.0789 3.70964 8.91393 3.60447C8.74314 3.49566 8.75127 3.31511 8.78264 3.14308C8.88488 2.58198 9.11201 2.06952 9.36354 1.568C9.43499 1.42575 9.51225 1.28654 9.59532 1.13092C9.55059 1.12788 9.52097 1.11633 9.50122 1.12605C7.59644 2.04095 5.84444 3.18684 4.45028 4.85493C2.67853 6.97529 1.89199 9.44642 2.0802 12.2586C2.12899 12.9868 2.25273 13.6993 2.44326 14.3996C2.45836 14.4561 2.4845 14.5096 2.50542 14.5637C2.60359 14.5376 2.62392 14.4513 2.66458 14.3887C5.46337 10.0853 9.18404 6.92484 13.6471 4.6835C13.7081 4.65311 13.7697 4.62393 13.833 4.59961C14.0096 4.53092 14.1351 4.60873 14.2181 4.76678C14.3012 4.92423 14.2536 5.0677 14.1246 5.168C14.0334 5.23912 13.9225 5.2835 13.8185 5.33639C9.61333 7.47621 6.06635 10.4422 3.37619 14.475C2.14003 16.3279 1.23208 18.3479 0.655826 20.5279C0.621553 20.6574 0.595413 20.7868 0.476909 20.8598C0.358405 20.9321 0.234092 20.9279 0.123139 20.8422C-0.0273141 20.7254 -0.0127915 20.5601 0.0296143 20.3996C0.238158 19.6118 0.485041 18.8373 0.781301 18.0805C1.11416 17.2294 1.49349 16.4014 1.94252 15.6106C2.06045 15.4026 2.10227 15.2574 1.98028 15.0039C1.75605 14.5376 1.65962 14.0118 1.58004 13.4938C0.875407 8.88897 2.48218 5.28776 5.96411 2.51694C7.27114 1.47499 8.72397 0.702954 10.243 0.06344C10.4156 -0.00890044 10.58 -0.0496299 10.717 0.123014C10.8588 0.301738 10.7722 0.458577 10.6671 0.616024C10.2912 1.17773 9.95897 1.76557 9.6842 2.40812C9.80212 2.44277 9.8608 2.3607 9.92702 2.31998C12.3401 0.835477 14.9559 0.216024 17.7309 0.45189C20.6789 0.702954 23.3435 1.83001 25.7909 3.54429C25.928 3.64034 26.0261 3.75341 25.9942 3.94308C25.9587 4.15341 25.7903 4.19171 25.6369 4.24946C23.0234 5.23426 20.4553 6.33456 17.9533 7.599C15.926 8.62393 13.9416 9.7297 12.142 11.1619C11.6511 11.5522 11.1789 11.9656 10.7409 12.4786V12.4792Z" fill="#11322C"/>
<path d="M8.91859 21.0043C8.34757 20.9618 7.83521 21.0937 7.32285 21.2104C5.4965 21.6274 3.69164 22.1314 1.89781 22.6803C1.84263 22.6973 1.7857 22.7107 1.72993 22.7265C1.52429 22.7849 1.3843 22.6985 1.32853 22.4937C1.27451 22.2967 1.36396 22.1551 1.54753 22.0985C2.04594 21.9441 2.5461 21.794 3.04742 21.6499C4.71983 21.1709 6.39341 20.6973 8.10126 20.3739C8.50906 20.2967 8.91975 20.2152 9.33626 20.2402C9.57036 20.2542 9.81086 20.3058 9.89857 20.5842C9.98629 20.8633 9.82073 21.0523 9.63949 21.208C9.33858 21.4657 9.05452 21.7368 8.82623 22.0669C8.46665 22.5873 8.16516 23.135 8.11172 23.7946C8.06002 24.4311 8.28948 24.8323 8.8605 25.0803C9.58082 25.3928 10.3377 25.3703 11.0877 25.2864C13.6326 25.0031 16.0155 24.0967 18.3919 23.1697C18.4733 23.138 18.5528 23.0949 18.6365 23.0803C18.7864 23.0542 18.9066 23.1222 18.9659 23.2669C19.0292 23.4207 19.0036 23.5678 18.8671 23.6712C18.8137 23.7119 18.7474 23.735 18.6847 23.7605C16.6318 24.583 14.5586 25.3399 12.3906 25.7642C11.2858 25.9806 10.1733 26.1186 9.05743 25.8535C8.09023 25.6238 7.5436 25.0116 7.46459 24.0706C7.42335 23.5776 7.55638 23.1101 7.74633 22.6627C7.98799 22.0931 8.32607 21.5915 8.74374 21.149C8.79544 21.0937 8.8605 21.0517 8.91917 21.0037L8.91859 21.0043Z" fill="#11322C"/>
</g>
<defs>
<clipPath id="clip0_24_10">
<rect width="26" height="26" fill="white"/>
</clipPath>
</defs>
</svg>
