<svg width="16" height="15" viewBox="0 0 16 15" fill="none" xmlns="http://www.w3.org/2000/svg">
<path d="M8.00593 0.00564075C9.89669 0.00564075 11.7877 0.0192199 13.6782 0.000417998C14.7578 -0.0102886 15.751 0.742049 15.9537 1.82629C15.9842 1.98976 15.9975 2.15846 15.9977 2.3248C16.0004 5.02444 16.0009 7.72434 15.999 10.424C15.9982 11.5584 15.2907 12.4457 14.1947 12.692C14.0177 12.7317 13.8372 12.7447 13.6549 12.7445C12.5602 12.7424 11.4655 12.745 10.3708 12.7413C10.2566 12.7411 10.1776 12.7724 10.0978 12.856C9.43692 13.5498 8.76886 14.2376 8.10796 14.9315C8.02501 15.0184 7.98341 15.0276 7.8949 14.9344C7.23479 14.2397 6.56673 13.5522 5.9053 12.8586C5.82686 12.776 5.74948 12.7405 5.63394 12.7411C4.53341 12.7452 3.43288 12.7447 2.33234 12.7431C1.18676 12.7416 0.286566 12.0261 0.0480683 10.9275C0.0122936 10.7637 0.00010377 10.5966 0.00010377 10.4289C0.00010377 7.72356 -0.00122122 5.01791 0.000898762 2.31253C0.00169375 1.12905 0.767536 0.230219 1.94863 0.0247038C2.08563 0.000940272 2.22846 0.00616302 2.36865 0.00616302C4.24774 0.00511847 6.12684 0.00537961 8.00593 0.00537961V0.00564075ZM10.9614 7.6084C10.975 7.61414 10.9882 7.61963 11.0017 7.62537C11.1827 7.44623 11.3687 7.27205 11.5434 7.08717C12.1197 6.47741 12.3519 5.74858 12.1977 4.93696C11.8351 3.02857 9.66111 2.21617 8.09762 3.39051C8.02448 3.44561 7.98155 3.45292 7.90497 3.39416C7.32807 2.95258 6.67644 2.76325 5.95035 2.87711C4.93647 3.03588 4.23423 3.60098 3.90404 4.54996C3.57412 5.49841 3.76386 6.38053 4.47962 7.10545C5.59393 8.23356 6.73183 9.3387 7.85992 10.4535C7.8888 10.482 7.91954 10.5091 7.9471 10.5386C7.98182 10.5754 8.01335 10.5778 8.05045 10.541C8.27835 10.3148 8.50704 10.0895 8.76753 9.83225C8.61331 9.83225 8.50943 9.83616 8.40581 9.83146C7.932 9.81057 7.58618 9.45856 7.58035 8.99243C7.57849 8.84254 7.57929 8.69264 7.58035 8.54275C7.583 8.03771 7.92087 7.69484 8.42966 7.68047C8.6565 7.67403 8.77257 7.55931 8.77787 7.33629C8.78847 6.88844 9.07864 6.55967 9.53099 6.5017C9.75703 6.47271 9.98785 6.47323 10.2139 6.50144C10.6583 6.55706 10.9357 6.86024 10.9607 7.3013C10.9665 7.40341 10.9614 7.50629 10.9614 7.60866V7.6084ZM8.75349 8.10012C8.63398 8.10012 8.54043 8.09881 8.44689 8.10012C8.16361 8.10482 8.00726 8.25837 8.00037 8.54197C7.99719 8.67462 7.99825 8.80728 8.0001 8.93994C8.00434 9.24939 8.16175 9.40764 8.47551 9.41364C8.67452 9.4173 8.87353 9.4186 9.07228 9.41286C9.17086 9.40999 9.20584 9.44158 9.20293 9.54029C9.19683 9.74189 9.19657 9.94401 9.20266 10.1459C9.21114 10.4352 9.37358 10.5927 9.66402 10.5987C9.81613 10.6018 9.9685 10.605 10.1203 10.5974C10.3774 10.5846 10.5292 10.43 10.5356 10.1775C10.5404 9.98736 10.5465 9.79621 10.5343 9.60688C10.5247 9.45934 10.5626 9.39876 10.7248 9.41129C10.9167 9.42592 11.1109 9.42043 11.3038 9.41286C11.5776 9.40215 11.7257 9.25957 11.7387 8.99321C11.7469 8.82634 11.7474 8.65843 11.7368 8.49183C11.7209 8.24114 11.5712 8.10534 11.3168 8.10117C11.1003 8.09751 10.8835 8.09647 10.6673 8.10169C10.5674 8.10404 10.534 8.06722 10.5359 7.97086C10.5401 7.74602 10.5412 7.52092 10.5335 7.29634C10.5263 7.08508 10.3877 6.93649 10.1733 6.92239C9.97539 6.90933 9.77532 6.90986 9.57737 6.92161C9.37438 6.93362 9.24453 7.05635 9.21538 7.25795C9.19736 7.38251 9.20743 7.51099 9.20028 7.63739C9.19206 7.78545 9.26493 7.9753 9.16768 8.07009C9.07016 8.16514 8.87751 8.0855 8.75323 8.10064L8.75349 8.10012Z" fill="#6FA089"/>
</svg>
