<svg width="2" height="10" viewBox="0 0 2 10" fill="none" xmlns="http://www.w3.org/2000/svg">
<path d="M1.72043 6.32778H0.27957L0 0H2L1.72043 6.32778Z" fill="white"/>
<path d="M0.288462 9.73111C0.480769 9.91037 0.717949 10 1 10C1.28205 10 1.51923 9.91037 1.71154 9.73111C1.90385 9.55186 2 9.33077 2 9.06786C2 8.80495 1.90385 8.58387 1.71154 8.40461C1.51923 8.22535 1.28205 8.13572 1 8.13572C0.717949 8.13572 0.480769 8.22535 0.288462 8.40461C0.0961539 8.58387 0 8.80495 0 9.06786C0 9.33077 0.0961539 9.55186 0.288462 9.73111Z" fill="white"/>
</svg>
