<svg width="28" height="30" viewBox="0 0 28 30" fill="none" xmlns="http://www.w3.org/2000/svg">
<path d="M27.3699 10.5252C25.7978 4.47886 20.3083 0.25 14.028 0.25C12.2571 0.25 10.5524 0.583427 8.90532 1.22763C3.17719 3.46788 -0.412019 9.4444 0.352155 15.5033C0.654905 17.904 1.52634 20.0876 2.99059 22.0303C3.10737 22.1857 3.1537 22.3329 3.11816 22.5223C2.72274 24.626 2.33114 26.7304 1.93826 28.8341C1.93064 28.875 1.93064 28.9178 1.92176 28.9587C1.87035 29.1971 1.88114 29.4211 2.08995 29.5871C2.31083 29.762 2.54186 29.706 2.77479 29.6047C4.87754 28.6919 6.98346 27.7841 9.0824 26.8631C9.31343 26.7618 9.50765 26.7656 9.73994 26.8417C12.2457 27.6671 14.7864 27.7627 17.3461 27.1368C24.7264 25.3312 29.2626 17.8065 27.3699 10.5252ZM22.7125 18.4954C22.1318 18.9628 21.5618 19.4422 20.9963 19.9278C19.7428 21.003 18.3306 21.0508 16.7337 20.4563C15.166 19.7857 13.7131 18.742 12.3746 17.5335C10.8323 16.1412 9.56667 14.532 8.58734 12.7063C8.02373 11.6557 7.70638 10.5107 7.35666 9.38148C7.22274 8.94929 7.34524 8.52905 7.65179 8.18367C8.48578 7.24378 9.32168 6.30578 10.1652 5.37407C10.487 5.018 10.977 5.06078 11.2289 5.46718C11.8922 6.53666 12.5516 7.60803 13.1984 8.68695C13.5557 9.28271 13.451 9.72372 12.8969 10.1672C12.61 10.3969 12.3339 10.6397 12.0515 10.8744C11.9373 10.9694 11.8776 11.0706 11.9347 11.2279C12.5701 12.9913 13.5259 14.5263 15.1311 15.587C15.5512 15.8651 16.0107 16.0796 16.4772 16.2771C16.8669 16.4419 17.1983 16.3683 17.4947 16.0922C17.7092 15.8921 17.9078 15.6751 18.1249 15.4775C18.6282 15.0183 18.9805 14.9931 19.6374 15.3913C20.6884 16.0286 21.6913 16.7376 22.6839 17.4586C23.0692 17.7385 23.0838 18.1965 22.7119 18.4954H22.7125Z" fill="white"/>
</svg>
