<svg width="12" height="10" viewBox="0 0 12 10" fill="none" xmlns="http://www.w3.org/2000/svg">
<path d="M11.6522 8.34784C11.7467 8.50052 11.8358 8.64484 11.9254 8.78895C12.0527 8.99434 11.9795 9.11439 11.7253 9.11669C11.7142 9.11669 11.7031 9.11878 11.6913 9.12004C11.6757 9.15559 11.7049 9.17944 11.7187 9.20495C11.8003 9.35763 11.8849 9.50864 11.9677 9.6607C12.0597 9.83011 11.9462 9.99012 11.74 9.9738C11.1633 9.92821 10.5868 9.87843 10.0104 9.83074C9.47509 9.78661 8.93957 9.74352 8.40428 9.69897C8.03001 9.66781 7.65551 9.63706 7.28169 9.60151C7.16793 9.59063 7.08154 9.5831 7.03631 9.71759C6.98928 9.85709 6.85065 9.928 6.69958 9.94975C6.23259 10.0171 5.76356 10.0154 5.29611 9.95268C5.10207 9.92674 4.96367 9.82426 4.90691 9.64689C4.88565 9.58018 4.83952 9.59335 4.79429 9.59691C4.51341 9.61908 4.23276 9.64334 3.95189 9.66697C3.49145 9.70567 3.03101 9.74478 2.5708 9.78347C2.1029 9.82279 1.635 9.86253 1.1671 9.90123C0.852532 9.92716 0.538186 9.95372 0.223163 9.97506C0.0442799 9.98719 -0.050476 9.85605 0.0275449 9.70818C0.118004 9.53667 0.212986 9.36705 0.307968 9.19763C0.338046 9.14367 0.350258 9.1146 0.25912 9.1146C0.0515166 9.11418 -0.022886 8.98409 0.0809158 8.81405C0.174315 8.66094 0.268845 8.50847 0.369254 8.34533C0.318823 8.34219 0.285806 8.33989 0.253014 8.33822C0.0693823 8.32923 -0.00773411 8.22151 0.0580749 8.06067C0.28083 7.51562 0.504717 6.97077 0.728603 6.42614C0.836475 6.16344 0.947062 5.90158 1.0529 5.63826C1.08886 5.54874 1.14924 5.50231 1.25372 5.50252C2.34104 5.50461 3.3985 5.65102 4.41798 6.01933C5.03061 6.24062 5.45464 6.64512 5.80223 7.13831C5.86329 7.22511 5.92231 7.31295 5.98721 7.4077C6.13738 7.17533 6.29545 6.96073 6.46891 6.75535C6.83844 6.31801 7.338 6.07162 7.89432 5.902C8.59741 5.68762 9.31815 5.56568 10.0565 5.52176C10.2709 5.509 10.4851 5.50858 10.6992 5.50231C10.8143 5.49896 10.8824 5.54644 10.9215 5.64244C11.2508 6.45082 11.5814 7.25878 11.9105 8.06737C11.9774 8.23197 11.9012 8.3194 11.6524 8.34868L11.6522 8.34784ZM5.79635 9.26854C5.79635 8.8519 5.79567 8.45869 5.7968 8.06548C5.7968 7.98475 5.78685 7.90548 5.76378 7.82851C5.58558 7.23389 5.19954 6.7794 4.61359 6.49976C3.61425 6.02268 2.52738 5.88171 1.41722 5.85557C1.35481 5.8541 1.3435 5.8882 1.32789 5.92773C1.07144 6.58698 0.815217 7.24644 0.556731 7.90506C0.532307 7.96739 0.535699 7.98914 0.616434 7.98893C1.27588 7.98726 1.92945 8.04854 2.57781 8.15709C3.45278 8.30371 4.30015 8.53148 5.1023 8.89227C5.33795 8.99831 5.56296 9.12213 5.79635 9.26854ZM6.18035 9.25996C6.67109 8.88432 7.21655 8.66408 7.78622 8.49028C8.93121 8.1412 10.1124 8.00462 11.313 7.98705C11.4381 7.98517 11.4387 7.98496 11.3953 7.87306C11.1463 7.22971 10.8962 6.58698 10.6495 5.94278C10.6241 5.87669 10.5905 5.85327 10.5124 5.85515C10.14 5.86414 9.76954 5.89154 9.40046 5.93923C8.73197 6.0254 8.07931 6.16951 7.47052 6.44392C6.81446 6.73966 6.37189 7.21151 6.19799 7.87515C6.14394 8.08138 6.18464 8.29806 6.18125 8.50994C6.17741 8.75234 6.18035 8.99517 6.18035 9.25996Z" fill="white"/>
<path d="M6.04107 0.922092C6.12723 0.770246 6.19598 0.634924 6.29367 0.515497C6.65415 0.0741828 7.14037 -0.0776627 7.70891 0.0384176C8.26003 0.150942 8.61892 0.479313 8.72974 0.99655C8.88193 1.70663 8.67524 2.3297 8.14311 2.86136C7.75029 3.25395 7.2989 3.58399 6.84434 3.9109C6.5949 4.09035 6.34207 4.26562 6.10574 4.45993C6.06979 4.48942 6.0474 4.49862 6.00307 4.46683C5.37303 4.01526 4.72828 3.58085 4.1507 3.06864C3.72984 2.6953 3.42001 2.268 3.32503 1.72566C3.24679 1.27974 3.30536 0.857672 3.60478 0.486215C4.10434 -0.133507 5.27013 -0.212567 5.81922 0.552099C5.90018 0.664833 5.96825 0.784259 6.04107 0.922092Z" fill="white"/>
</svg>
