<svg width="14" height="12" viewBox="0 0 14 12" fill="none" xmlns="http://www.w3.org/2000/svg">
<path d="M6.69552 4.86892C6.67924 6.76996 5.94029 8.3595 4.54501 9.66107C3.57322 10.5674 2.42655 11.2001 1.19505 11.6941C0.927187 11.8016 0.664014 11.6373 0.62973 11.3535C0.612712 11.2135 0.59446 11.0735 0.574728 10.934C0.542171 10.7045 0.627511 10.5531 0.847027 10.467C1.46956 10.2224 2.03365 9.88426 2.53878 9.45121C3.41635 8.6989 3.95971 7.76439 4.12151 6.6244C4.13903 6.50092 4.14716 6.37549 4.1521 6.25079C4.15876 6.08267 4.08723 6.03026 3.92691 6.0766C2.75607 6.41552 1.72904 6.1489 0.879584 5.30803C0.072308 4.5089 -0.183218 3.52587 0.129283 2.44459C0.445732 1.34948 1.20614 0.647383 2.3237 0.366934C3.35888 0.107106 4.28233 0.398472 5.07801 1.07024C5.94276 1.80023 6.43728 2.73959 6.61586 3.84392C6.67086 4.18357 6.69355 4.52491 6.69552 4.86892ZM6.2592 4.89027C6.25131 4.51351 6.23084 4.18017 6.17386 3.84902C6.01922 2.95066 5.62705 2.16972 4.95863 1.53871C4.26161 0.880525 3.43904 0.568295 2.46429 0.770626C1.13906 1.04598 0.241015 2.37642 0.484209 3.68866C0.752807 5.13773 2.29756 6.14744 3.80433 5.66587C4.23768 5.52735 4.60815 5.79906 4.59088 6.24885C4.56351 6.96744 4.3837 7.65013 4.03913 8.28551C3.4198 9.42671 2.45961 10.2033 1.28778 10.7496C1.19949 10.7909 1.07961 10.8083 1.02955 10.8763C0.973557 10.9524 1.04237 11.0686 1.04607 11.1681C1.04632 11.1761 1.0473 11.1841 1.04755 11.1924C1.04952 11.2649 1.07764 11.2797 1.14794 11.2504C2.30816 10.7681 3.38848 10.1606 4.29861 9.29085C5.57057 8.07517 6.24416 6.60184 6.2592 4.89027Z" fill="white"/>
<path d="M13.9997 4.85985C13.9841 6.73276 13.2687 8.30905 11.9039 9.60547C10.9179 10.5422 9.74735 11.1922 8.48597 11.6954C8.22767 11.7985 7.96987 11.641 7.93134 11.3701C7.90961 11.2184 7.88714 11.067 7.86442 10.9155C7.8338 10.7104 7.93505 10.549 8.15063 10.4635C8.90676 10.1638 9.57696 9.73509 10.1479 9.16249C10.8697 8.43891 11.2996 7.57333 11.43 6.56649C11.4436 6.4626 11.4527 6.35774 11.4569 6.25288C11.4636 6.08103 11.3865 6.02301 11.2218 6.0752C9.57177 6.59926 7.91603 5.58828 7.45154 4.14743C6.87024 2.34395 8.08889 0.640949 9.75994 0.328798C10.7778 0.13874 11.6626 0.440454 12.4225 1.10044C13.2734 1.83955 13.7592 2.77965 13.9258 3.88189C13.9747 4.20593 14.0034 4.53095 13.9997 4.85985ZM13.5604 4.85451C13.5614 4.58678 13.5419 4.32172 13.509 4.05665C13.3944 3.13064 13.0287 2.31628 12.3713 1.6427C11.7046 0.959412 10.9045 0.595559 9.91724 0.736585C8.50622 0.938294 7.5066 2.34443 7.78738 3.72266C8.07654 5.14287 9.6019 6.14268 11.1077 5.66183C11.5436 5.52275 11.9224 5.81135 11.8962 6.25992C11.8528 7.00631 11.6668 7.71533 11.2922 8.36998C10.6383 9.51299 9.65055 10.2822 8.4477 10.806C8.34818 10.8495 8.27336 10.883 8.32126 11.0104C8.34201 11.0657 8.34744 11.1296 8.34645 11.1893C8.34497 11.2784 8.37979 11.2764 8.44868 11.2478C9.53745 10.7973 10.5563 10.2334 11.4322 9.44454C12.802 8.21123 13.5431 6.69392 13.5599 4.85402L13.5604 4.85451Z" fill="white"/>
</svg>
