<svg width="14" height="14" viewBox="0 0 14 14" fill="none" xmlns="http://www.w3.org/2000/svg">
<path fill-rule="evenodd" clip-rule="evenodd" d="M3.48214 2.12935L0 4.25801V9.129V14H7H14V9.12855V4.25709L10.5018 2.1282C8.57773 0.957313 6.9947 -0.000385224 6.9839 1.16243e-07C6.97311 0.000371184 5.39733 0.958583 3.48214 2.12935ZM10.1305 2.51977C11.8541 3.56849 13.2697 4.43157 13.2763 4.43773C13.2875 4.44825 8.51894 8.67023 8.47817 8.68586C8.46719 8.69007 8.15516 8.42296 7.73509 8.04977C7.3368 7.69591 7.00643 7.40641 7.00094 7.40641C6.99546 7.40641 6.66146 7.69912 6.2587 8.05689C5.85596 8.41465 5.51887 8.70432 5.50964 8.70058C5.49246 8.6936 0.845643 4.57356 0.7595 4.48891L0.711857 4.4421L3.84521 2.52763C5.56856 1.47467 6.98266 0.613119 6.98764 0.613076C6.99263 0.613033 8.40691 1.47104 10.1305 2.51977ZM2.87857 7.07751C4.04143 8.10828 5.0206 8.97858 5.05453 9.0115L5.11619 9.07136L2.94753 10.9969C1.75476 12.056 0.722543 12.9729 0.653714 13.0344L0.528571 13.1464V9.06866V4.99095L0.646429 5.09716C0.711257 5.15558 1.71571 6.04673 2.87857 7.07751ZM13.4714 9.06913V13.1438L11.1708 11.1007C9.72153 9.81367 8.87511 9.05255 8.88364 9.04403C8.90594 9.02175 13.464 4.99607 13.4679 4.99523C13.4698 4.9948 13.4714 6.82807 13.4714 9.06913ZM10.0194 10.7817C11.6734 12.2496 13.0271 13.4553 13.0276 13.4612C13.0281 13.4671 10.3142 13.4719 6.9967 13.4719H0.964829L1.00741 13.4297C1.10474 13.3331 6.99366 8.10777 7.00246 8.11019C7.00774 8.11166 8.36536 9.31384 10.0194 10.7817Z" fill="white"/>
</svg>
