<svg width="84" height="84" viewBox="0 0 84 84" fill="none" xmlns="http://www.w3.org/2000/svg">
<path d="M42 84C65.196 84 84 65.196 84 42C84 18.8041 65.196 0 42 0C18.804 0 0 18.8041 0 42C0 65.196 18.804 84 42 84Z" fill="#095540"/>
<g clip-path="url(#clip0_332_3437)">
<path d="M72.068 34.2698C64.4678 28.5685 55.3205 31.9132 48.9123 36.0366C53.7597 27.7249 58.3328 15.6928 49.3027 8.91798C45.8442 6.32349 38.7574 5.53456 33.9578 11.9314C28.1928 19.6147 31.6764 28.8793 35.8613 35.2978C27.43 30.6325 15.3103 26.336 8.7711 35.4742C6.26313 38.9795 5.65065 46.0719 12.1682 50.7361C19.601 56.0548 28.252 53.0209 34.5122 49.0136C30.045 57.3902 26.336 68.9123 35.1634 75.2306C38.6686 77.7386 45.7611 78.351 50.4252 71.8335C55.6757 64.4963 52.7852 55.974 48.8553 49.7342C57.1169 54.3768 68.5468 58.3283 75.0837 49.6158C77.6782 46.1573 78.4671 39.0705 72.0703 34.2709L72.068 34.2698Z" fill="#C8D750"/>
</g>
<defs>
<clipPath id="clip0_332_3437">
<rect width="70" height="70" fill="white" transform="translate(7 7)"/>
</clipPath>
</defs>
</svg>
