<svg width="84" height="84" viewBox="0 0 84 84" fill="none" xmlns="http://www.w3.org/2000/svg">
<path d="M42 84C65.196 84 84 65.196 84 42C84 18.8041 65.196 0 42 0C18.804 0 0 18.8041 0 42C0 65.196 18.804 84 42 84Z" fill="#095540"/>
<g clip-path="url(#clip0_332_3423)">
<path d="M79 34.3463C77.2267 35.0623 75.6083 35.7146 73.9908 36.3679C63.5604 40.5801 53.129 44.7903 42.7023 49.0137C42.165 49.2315 41.6931 49.2517 41.141 49.0299C29.3594 44.2961 17.5705 39.5805 5.78433 34.8598C5.56406 34.7717 5.35115 34.6603 5 34.4962C6.58157 33.9422 8.03502 33.4277 9.49217 32.9243C19.9392 29.3198 30.388 25.7202 40.8323 22.1066C41.2636 21.9577 41.6433 21.9698 42.07 22.1116C50.5475 24.9201 59.0286 27.7145 67.5088 30.5138C67.6618 30.5645 67.8111 30.6303 67.9521 30.8126C67.7078 30.8126 67.4645 30.8126 67.2203 30.8126C59.0452 30.8126 50.871 30.8217 42.6959 30.7944C42.047 30.7924 41.8949 30.9929 41.9198 31.6664C41.9659 32.8868 41.93 32.8889 43.0111 32.8889C43.2018 32.8889 43.3926 32.8889 43.5834 32.8889C53.4507 32.8889 63.318 32.9172 73.1843 32.8605C74.7604 32.8514 76.1622 33.4317 77.624 33.851C78.0332 33.9685 78.4304 34.1387 79.0009 34.3463H79Z" fill="#C8D750"/>
<path d="M41.8076 63.9521C37.2362 63.8478 32.6076 63.5723 28.1155 62.0916C25.7717 61.3198 23.544 60.2948 21.7661 58.3553C20.486 56.9587 19.8445 55.2602 19.8371 53.2842C19.8261 50.2721 19.8519 47.2601 19.8205 44.249C19.8131 43.534 20.0002 43.4945 20.5505 43.7031C27.4417 46.3111 34.3413 48.8937 41.2316 51.5037C41.7145 51.687 42.1228 51.6698 42.5966 51.4895C49.486 48.8613 56.3837 46.2594 63.2703 43.6211C63.8712 43.3912 63.9754 43.5208 63.9708 44.173C63.9459 47.1325 63.9496 50.0919 63.9625 53.0513C63.9726 55.4648 63.109 57.4084 61.4251 58.9306C59.274 60.8752 56.7191 61.8373 54.0703 62.5493C50.0675 63.6239 45.9837 63.8721 41.8085 63.9511L41.8076 63.9521Z" fill="#C8D750"/>
<path d="M75.2493 48.105C75.2493 50.9854 75.2539 53.8659 75.2447 56.7463C75.2438 57.1565 75.3231 57.4664 75.6051 57.7854C76.6844 59.0058 76.4687 60.8532 75.1019 61.628C74.5378 61.948 74.6521 62.2964 74.748 62.738C75.5129 66.2666 76.2834 69.7932 77.0512 73.3208C77.242 74.1979 77.0014 74.7347 76.1959 74.8491C74.7793 75.0507 73.3415 75.0446 71.9249 74.8582C71.0558 74.7438 70.7977 74.1716 71.0014 73.2286C71.7692 69.6747 72.5323 66.1198 73.3203 62.5709C73.4198 62.1222 73.3811 61.9116 72.9756 61.6705C71.548 60.8228 71.3175 58.9359 72.4871 57.7236C72.8033 57.3965 72.8853 57.0764 72.8844 56.6338C72.8742 51.2133 72.8871 45.7928 72.8641 40.3723C72.8613 39.7767 73.0162 39.4547 73.5323 39.3017C74.0936 39.1356 74.7194 38.4601 75.1397 38.766C75.4991 39.0283 75.242 39.9398 75.2447 40.5627C75.2576 43.0765 75.2503 45.5902 75.2503 48.104L75.2493 48.105Z" fill="#C8D750"/>
</g>
<defs>
<clipPath id="clip0_332_3423">
<rect width="74" height="53" fill="white" transform="translate(5 22)"/>
</clipPath>
</defs>
</svg>
