<svg width="84" height="84" viewBox="0 0 84 84" fill="none" xmlns="http://www.w3.org/2000/svg">
<path d="M42 84C65.196 84 84 65.196 84 42C84 18.8041 65.196 0 42 0C18.804 0 0 18.8041 0 42C0 65.196 18.804 84 42 84Z" fill="#095540"/>
<g clip-path="url(#clip0_332_3430)">
<path d="M41.9768 18.0025C48.7853 18.0025 55.5939 17.9987 62.4037 18.0038C65.659 18.0063 68.356 20.0109 69.1887 23.0298C69.3299 23.5414 69.4044 24.0607 69.4044 24.5952C69.3992 32.579 69.3966 40.5629 69.4123 48.548C69.4123 49.066 69.2855 49.2212 68.7351 49.2187C63.6666 49.197 58.5981 49.2072 53.5296 49.206C50.2064 49.206 47.6349 50.5805 45.7759 53.2367C45.5706 53.5307 45.3745 53.6669 44.998 53.6643C42.9965 53.6452 40.995 53.6478 38.9948 53.663C38.63 53.6656 38.4183 53.5561 38.2065 53.2532C36.354 50.5945 33.7864 49.2085 30.4619 49.2072C25.4365 49.2072 20.4112 49.1958 15.3871 49.2212C14.7544 49.225 14.5531 49.1067 14.5557 48.4385C14.5845 40.5603 14.5727 32.6821 14.574 24.804C14.574 20.9654 17.5978 18.0089 21.5499 18.0038C28.3584 17.9949 35.1669 18.0012 41.9768 18.0012V18.0025ZM48.7801 31.3916C48.7801 31.137 48.7814 30.8838 48.7801 30.6292C48.7801 30.5452 48.7749 30.4587 48.7579 30.376C48.1827 27.5709 46.5433 25.663 43.6698 24.9414C40.876 24.2389 38.4653 25.042 36.6756 27.2081C34.8284 29.4443 34.6466 31.9592 35.9893 34.5149C36.2638 35.038 36.1474 35.1894 35.7095 35.4694C33.2831 37.0196 31.6934 39.173 30.96 41.912C30.641 43.1007 31.3234 44.283 32.4961 44.6178C33.7054 44.964 34.9356 44.306 35.3277 43.102C35.38 42.9416 35.4193 42.7761 35.4729 42.6158C36.5318 39.4569 39.9034 37.5032 43.2292 38.1587C46.0517 38.7149 47.8153 40.405 48.6389 43.0689C49.0167 44.2907 50.2182 44.9487 51.4444 44.628C52.638 44.3161 53.3322 43.1058 53.0014 41.8814C52.255 39.1196 50.6326 36.9661 48.18 35.4134C47.7996 35.1729 47.6754 35.0329 47.9434 34.5976C48.5448 33.6201 48.8337 32.5396 48.7788 31.389L48.7801 31.3916Z" fill="#C8D750"/>
<path d="M41.9408 66.9987C34.4786 66.9987 27.0177 66.9961 19.5555 66.9999C16.7931 67.0012 14.3902 66.1485 12.4802 64.1643C10.7153 62.3303 9.88258 60.1387 10.0133 57.6238C10.1271 55.4474 12.1482 53.6108 14.5314 53.5968C19.8823 53.5663 25.2345 53.5701 30.5854 53.5956C32.9006 53.607 34.7296 55.1954 35.076 57.4214C35.1453 57.8668 35.2839 58.0514 35.799 58.0476C39.9314 58.0234 44.0652 58.0247 48.1989 58.0476C48.6826 58.0501 48.8186 57.891 48.8892 57.4596C49.2722 55.1203 51.109 53.5943 53.5432 53.5905C58.6993 53.5828 63.8541 53.5879 69.0102 53.5879C72.3151 53.5879 74.4003 55.9272 73.9362 59.1103C73.3557 63.085 70.5751 65.983 66.5289 66.8141C65.7824 66.9668 65.0229 67.0012 64.2594 66.9999C56.8194 66.9974 49.3794 66.9987 41.9394 66.9987H41.9408Z" fill="#C8D750"/>
<path d="M41.9883 33.599C40.6992 33.599 39.6482 32.5757 39.6743 31.3462C39.7005 30.1244 40.7215 29.1533 41.9843 29.1533C43.2721 29.1533 44.3245 30.1766 44.2983 31.406C44.2722 32.6279 43.2485 33.599 41.9883 33.6002V33.599Z" fill="#C8D750"/>
</g>
<defs>
<clipPath id="clip0_332_3430">
<rect width="64" height="49" fill="white" transform="translate(10 18)"/>
</clipPath>
</defs>
</svg>
