<svg width="28" height="36" viewBox="0 0 28 36" fill="none" xmlns="http://www.w3.org/2000/svg">
<path d="M28 18.0002C28 23.3941 28 28.788 28 34.1819C28 35.1845 27.6899 35.6399 26.8115 35.9153C26.213 36.103 25.684 35.9804 25.2433 35.5315C21.6161 31.8373 17.9894 28.1425 14.3628 24.4476C14.1222 24.2025 13.8834 24.2005 13.6464 24.4417C10.0549 28.0986 6.44941 31.7431 2.88203 35.4225C2.03265 36.2984 0.577528 36.1065 0.112638 35.008C0.0201432 34.7906 0.000193452 34.5656 0.000193452 34.3352C0.000193452 23.4581 -0.00101562 12.5815 0.00261161 1.7043C0.00261161 0.644237 0.64705 0.00464653 1.71708 0.00405431C9.97024 -0.00068339 18.2228 -0.00068339 26.4754 0.00109325C27.3042 0.00109325 27.925 0.583831 27.9849 1.39812C27.9988 1.58882 27.9994 1.7801 27.9994 1.97139C28 7.31433 28 12.6573 28 18.0002Z" fill="#6FA089"/>
</svg>
