<svg width="84" height="84" viewBox="0 0 84 84" fill="none" xmlns="http://www.w3.org/2000/svg">
<path d="M42 84C65.196 84 84 65.196 84 42C84 18.8041 65.196 0 42 0C18.804 0 0 18.8041 0 42C0 65.196 18.804 84 42 84Z" fill="white" fill-opacity="0.2"/>
<g clip-path="url(#clip0_370_309)">
<path d="M40.6499 76.9147C41.2928 76.7903 41.7446 76.7261 42.1833 76.6134C44.8522 75.9229 45.799 72.8204 43.9499 70.7818C43.6736 70.4779 43.6435 70.2879 43.8058 69.904C44.4004 68.4916 44.1804 67.1723 43.1458 66.0298C42.9088 65.7691 42.8329 65.6066 43.0083 65.2607C43.4614 64.362 43.4732 63.4003 43.1118 62.474C42.9337 62.0181 43.0332 61.9578 43.4719 61.8936C44.9124 61.6827 46.3516 61.4573 47.7764 61.1612C49.759 60.7485 50.9769 58.9182 50.584 57.0433C50.1663 55.0505 48.4285 53.8727 46.4027 54.2186C41.412 55.0689 36.4227 55.9257 31.4307 56.776C30.6908 56.9018 29.9667 56.8782 29.2569 56.5651C28.5222 56.2402 27.7601 55.9782 27.0189 55.669C25.4736 55.0243 24.9629 54.2264 24.9341 52.5651C24.9066 50.9995 25.086 49.4233 24.7455 47.8721C24.02 44.5718 21.2098 42.2475 17.8011 42.1126C16.8281 42.0746 16.3854 42.5083 16.3828 43.5394C16.3763 46.1767 16.3422 48.8154 16.3959 51.4528C16.4247 52.8875 16.0594 54.1478 15.2514 55.3178C14.4827 56.4302 13.7755 57.5779 13.5464 58.9496C13.3683 60.0174 13.4979 61.076 13.6315 62.136C13.642 62.2172 13.6407 62.2997 13.6472 62.4242C5.49926 51.7122 3.83222 34.0524 14.3923 20.5432C25.2248 6.68546 44.3009 2.96719 59.4535 11.6929C74.5001 20.3571 80.9836 38.8961 74.4883 54.9628C67.6735 71.8221 51.5164 77.7113 40.6499 76.9147ZM47.9676 27.2041C47.8274 27.4583 47.7148 27.6391 47.6231 27.8304C46.4131 30.3158 46.4708 32.7632 48.0029 35.0796C49.7525 37.7248 53.063 38.2449 55.3678 36.2705C57.0767 34.807 57.7171 32.8798 57.6215 30.6721C57.5796 29.7223 57.2718 28.834 56.8816 27.8513C57.5167 28.0596 58.0235 28.2444 58.5408 28.3898C59.2139 28.5798 59.8437 28.2627 60.0232 27.6771C60.2143 27.0534 59.9223 26.4756 59.2689 26.2097C59.0083 26.1036 58.7385 26.0145 58.4687 25.9359C54.9841 24.9257 51.43 24.6204 47.817 24.872C46.7156 24.9493 46.18 25.3043 46.1761 26.0485C46.1722 26.8228 46.73 27.2054 47.9676 27.2054V27.2041ZM38.5245 30.0878C38.5271 28.5798 38.0727 27.1478 37.2254 25.9948C35.2048 23.2461 31.618 23.0495 29.3446 25.5638C27.0503 28.099 27.18 32.5064 29.6183 34.9001C31.5211 36.7684 34.2567 36.8981 36.2839 35.1739C37.8409 33.8493 38.4904 32.0976 38.5245 30.0878ZM37.063 46.1099C36.3899 46.1414 35.7142 46.1518 35.0437 46.2108C34.2462 46.2816 33.7774 47.069 34.0891 47.7778C34.334 48.3359 34.7923 48.4879 35.3685 48.463C38.0583 48.3464 40.7036 48.6359 43.2977 49.3657C45.0198 49.8492 46.6449 50.558 48.1823 51.4751C48.824 51.8577 49.4775 51.6952 49.8245 51.1305C50.1676 50.5697 49.9842 49.9265 49.353 49.5072C49.154 49.3749 48.9458 49.2583 48.7363 49.1404C45.1115 47.1057 41.1842 46.2462 37.063 46.1086V46.1099ZM33.124 19.533C30.3307 19.5212 27.5833 19.6824 24.9158 20.5091C24.1039 20.7607 23.7542 21.3267 23.9585 22.0171C24.1445 22.646 24.7783 22.9316 25.5509 22.7037C28.6676 21.7878 31.8485 21.7472 35.0503 21.9831C35.4615 22.0132 35.8753 22.0368 36.2826 22.0957C37.1089 22.215 37.7204 21.8612 37.8173 21.1825C37.9247 20.4292 37.4808 19.8894 36.6112 19.8042C35.4431 19.6889 34.2711 19.6208 33.124 19.5343V19.533Z" fill="#E03C4A"/>
<path d="M18.7155 44.5955C20.8055 44.9033 22.58 47.0468 22.6245 49.3068C22.6481 50.5266 22.6376 51.7477 22.6297 52.9688C22.6192 54.4231 23.0763 55.7293 24.2169 56.6137C26.1563 58.1191 28.3864 59.1004 30.8589 59.1227C32.2941 59.1358 33.7346 58.7152 35.1698 58.4728C39.0697 57.8151 42.9668 57.1469 46.8666 56.4892C47.5738 56.37 48.1709 56.7984 48.3071 57.4915C48.4368 58.1505 48.0675 58.765 47.3603 58.8947C45.3305 59.2681 43.2929 59.6022 41.2579 59.9428C37.8086 60.5206 34.3566 61.0879 30.9086 61.671C30.1438 61.8007 29.7104 62.3889 29.8361 63.0493C29.9618 63.7096 30.5459 64.0463 31.3316 63.914C33.9454 63.4724 36.5593 63.0309 39.1731 62.5907C39.3447 62.5619 39.5188 62.5448 39.693 62.5357C40.37 62.5055 40.9017 62.896 41.0405 63.5209C41.1649 64.0791 40.8821 64.6267 40.2613 64.8678C39.3643 65.2163 38.3952 65.2595 37.4563 65.4285C35.4684 65.7888 33.4753 66.1164 31.4848 66.4623C30.8824 66.5671 30.5681 66.9667 30.5406 67.5471C30.5158 68.0725 30.7921 68.4603 31.2936 68.6568C31.5686 68.7655 31.8476 68.7079 32.1291 68.6594C34.8058 68.1996 37.4838 67.7436 40.1618 67.2916C40.6987 67.2012 41.216 67.2261 41.5735 67.724C41.8642 68.1288 41.9179 68.5625 41.69 69.0158C41.4766 69.4429 41.0955 69.6525 40.6516 69.7285C38.0404 70.1792 35.4265 70.6181 32.814 71.0623C32.6215 71.095 32.4277 71.1291 32.2391 71.1763C31.5896 71.3387 31.1889 71.8772 31.2831 72.4498C31.3918 73.1009 31.9772 73.5202 32.6804 73.4101C33.7975 73.2359 34.9093 73.0393 36.0237 72.8481C37.6514 72.5677 39.2766 72.2742 40.9056 72.0056C41.859 71.8484 42.515 72.2742 42.608 73.0682C42.6892 73.7652 42.1471 74.3115 41.2644 74.4583C36.6562 75.2247 32.0401 75.9453 27.4462 76.7851C24.0728 77.4009 21.1892 76.7052 18.8897 74.0639C17.6221 72.6083 17.1467 70.8435 16.907 68.9791C16.5574 66.2605 16.1881 63.5458 15.7979 60.8324C15.6525 59.8184 15.8437 58.8881 16.2968 57.9933C16.3754 57.8387 16.4474 57.6749 16.5548 57.5413C18.3855 55.2537 18.9185 52.6268 18.7365 49.7562C18.6278 48.0425 18.7168 46.317 18.7168 44.5902L18.7155 44.5955Z" fill="#E03C4A"/>
<path d="M55.3254 31.6811C55.3045 32.4383 54.9457 33.5284 54.0421 34.3853C52.9512 35.419 51.4387 35.3993 50.3544 34.3578C48.707 32.7751 48.6756 29.6516 50.2889 28.027C51.3431 26.9657 52.7653 26.8963 53.9255 27.8488C54.8409 28.5995 55.3333 29.7852 55.3254 31.6811Z" fill="#E03C4A"/>
<path d="M36.2405 30.122C36.2078 31.2526 35.8948 32.3191 35.0698 33.1825C33.9108 34.3957 32.2346 34.3722 31.0993 33.1406C29.6182 31.5356 29.6195 28.6323 31.1019 27.0326C32.2805 25.7617 34.0156 25.7748 35.1588 27.0797C35.9092 27.9353 36.2156 28.9598 36.2392 30.122H36.2405Z" fill="#E03C4A"/>
</g>
<defs>
<clipPath id="clip0_370_309">
<rect width="70" height="70" fill="white" transform="translate(7 7)"/>
</clipPath>
</defs>
</svg>
