<svg width="84" height="84" viewBox="0 0 84 84" fill="none" xmlns="http://www.w3.org/2000/svg">
<path d="M42 84C65.196 84 84 65.196 84 42C84 18.8041 65.196 0 42 0C18.804 0 0 18.8041 0 42C0 65.196 18.804 84 42 84Z" fill="white" fill-opacity="0.2"/>
<g clip-path="url(#clip0_370_304)">
<path d="M42.0808 7C61.823 7.17489 77.1352 23.0261 76.9991 42.0978C76.8604 61.5931 61.1929 77.0998 41.9823 77C22.4423 76.8977 6.90707 61.2123 7.00042 41.8711C7.09506 22.3032 22.8714 7.06348 42.0808 7ZM42.0238 51.6116C38.4961 51.6984 35.1902 52.4459 32.3445 54.6067C29.9682 56.4113 28.6173 58.8066 28.3982 61.816C28.3515 62.4598 28.5356 62.5233 29.106 62.316C30.5541 61.7913 32.0088 61.2758 33.488 60.8508C37.5407 59.6862 41.6491 59.2199 45.8625 59.8611C48.9571 60.3327 51.935 61.1915 54.8481 62.2966C55.5197 62.5505 55.6831 62.4067 55.6195 61.7149C55.3512 58.8234 54.0768 56.4774 51.7963 54.7C48.9221 52.4602 45.5643 51.701 42.0225 51.6103L42.0238 51.6116ZM29.3861 39.9655C31.9699 39.9629 34.0921 37.863 34.1012 35.298C34.1116 32.7174 32.0217 30.6239 29.4159 30.6006C26.788 30.5773 24.632 32.7109 24.6566 35.3096C24.6813 37.8811 26.801 39.9668 29.3861 39.9655ZM54.6213 30.6006C52.0102 30.6045 49.9282 32.6682 49.9217 35.2591C49.9152 37.8902 52.0141 39.9746 54.6602 39.9655C57.2414 39.9564 59.3455 37.8371 59.3299 35.2643C59.3131 32.6695 57.2206 30.5967 54.6213 30.6006ZM61.7219 26.1572C62.0369 26.0329 62.7396 26.38 62.899 25.8606C63.0637 25.3281 62.9703 24.6351 62.7642 24.0974C62.619 23.7205 62.0382 23.9679 61.6558 23.9562C58.2811 23.8461 55.4614 22.7191 53.6891 19.6592C53.5128 19.3535 53.3482 19.2472 53.015 19.4338C52.7687 19.5724 52.4964 19.6812 52.2216 19.746C51.5072 19.9157 51.4217 20.2111 51.8158 20.8497C54.0651 24.4951 57.4345 26.0419 61.7219 26.1572ZM24.5776 23.9523C23.3831 23.9618 22.7664 24.401 22.7275 25.2698C22.7249 25.3268 22.7301 25.3864 22.7172 25.4408C22.594 25.9668 22.817 26.1585 23.3382 26.165C27.3714 26.2207 30.8536 25.0237 33.2624 21.6166C34.5498 19.7952 34.4007 20.2512 32.5481 19.439C32.1643 19.2706 32.0528 19.4403 31.896 19.7097C30.1471 22.7048 27.374 23.8189 24.5776 23.9511V23.9523Z" fill="#E03C4A"/>
</g>
<defs>
<clipPath id="clip0_370_304">
<rect width="70" height="70" fill="white" transform="translate(7 7)"/>
</clipPath>
</defs>
</svg>
