<svg width="14" height="13" viewBox="0 0 14 13" fill="none" xmlns="http://www.w3.org/2000/svg">
<path d="M12.996 10.7297C13.0963 10.9143 13.1908 11.0888 13.2858 11.263C13.4208 11.5114 13.3431 11.6565 13.0735 11.6593C13.0617 11.6593 13.05 11.6618 13.0375 11.6633C13.021 11.7063 13.0519 11.7352 13.0665 11.766C13.1531 11.9506 13.2428 12.1332 13.3306 12.3171C13.4282 12.5219 13.3078 12.7154 13.0891 12.6957C12.4775 12.6405 11.8661 12.5803 11.2547 12.5227C10.687 12.4693 10.119 12.4172 9.55127 12.3634C9.15432 12.3257 8.75712 12.2885 8.36065 12.2455C8.24 12.2324 8.14838 12.2233 8.10041 12.3859C8.05052 12.5545 7.90349 12.6403 7.74327 12.6666C7.24797 12.748 6.75052 12.746 6.25474 12.6701C6.04895 12.6388 5.90216 12.5148 5.84196 12.3004C5.81941 12.2197 5.77048 12.2356 5.72251 12.2399C5.42462 12.2667 5.12696 12.2961 4.82906 12.3247C4.34072 12.3714 3.85239 12.4187 3.36429 12.4655C2.86803 12.5131 2.37178 12.5611 1.87552 12.6079C1.54189 12.6393 1.2085 12.6714 0.874382 12.6972C0.684659 12.7118 0.58416 12.5533 0.666909 12.3745C0.76285 12.1671 0.863588 11.962 0.964326 11.7572C0.996226 11.6919 1.00918 11.6568 0.912518 11.6568C0.692334 11.6563 0.613422 11.499 0.723515 11.2934C0.822573 11.1082 0.922832 10.9239 1.02933 10.7266C0.975839 10.7228 0.940821 10.72 0.906042 10.718C0.711282 10.7071 0.629493 10.5769 0.699289 10.3824C0.935544 9.72338 1.173 9.06459 1.41045 8.40606C1.52486 8.08842 1.64215 7.77179 1.7544 7.4534C1.79254 7.34516 1.85658 7.28902 1.96739 7.28927C3.1206 7.2918 4.24215 7.46883 5.3234 7.91417C5.97316 8.18174 6.42288 8.67084 6.79153 9.26716C6.85629 9.37211 6.91889 9.47833 6.98773 9.59289C7.14699 9.31193 7.31465 9.05245 7.49862 8.80411C7.89054 8.27531 8.42037 7.9774 9.01041 7.7723C9.75611 7.51308 10.5205 7.36565 11.3036 7.31254C11.531 7.29711 11.7582 7.29661 11.9853 7.28902C12.1074 7.28497 12.1796 7.34238 12.2211 7.45846C12.5703 8.4359 12.921 9.41283 13.2699 10.3905C13.3409 10.5896 13.2601 10.6953 12.9963 10.7307L12.996 10.7297ZM6.7853 11.8429C6.7853 11.3391 6.78458 10.8637 6.78578 10.3882C6.78578 10.2906 6.77522 10.1948 6.75076 10.1017C6.56176 9.38274 6.15233 8.83319 5.53087 8.49507C4.47096 7.91822 3.31823 7.74777 2.1408 7.71616C2.0746 7.71439 2.06261 7.75561 2.04606 7.80341C1.77407 8.60053 1.50231 9.39791 1.22816 10.1943C1.20226 10.2696 1.20586 10.2959 1.29148 10.2957C1.99089 10.2937 2.68407 10.3678 3.37172 10.499C4.29971 10.6763 5.19844 10.9517 6.04919 11.3879C6.29912 11.5162 6.53777 11.6659 6.7853 11.8429ZM7.19257 11.8325C7.71305 11.3783 8.29157 11.112 8.89576 10.9019C10.1101 10.4798 11.3629 10.3147 12.6362 10.2934C12.7689 10.2911 12.7696 10.2909 12.7236 10.1556C12.4595 9.37768 12.1942 8.60053 11.9325 7.82161C11.9057 7.7417 11.8699 7.71338 11.7872 7.71565C11.3921 7.72653 10.9993 7.75966 10.6078 7.81732C9.89882 7.92151 9.2066 8.09575 8.56092 8.42755C7.86511 8.78514 7.39572 9.35568 7.21127 10.1581C7.15395 10.4075 7.19712 10.6695 7.19353 10.9256C7.18945 11.2188 7.19257 11.5124 7.19257 11.8325Z" fill="white"/>
<path d="M7.04485 1.75092C7.13623 1.56732 7.20915 1.40369 7.31276 1.25929C7.69509 0.725683 8.21077 0.542082 8.81376 0.682438C9.39828 0.818496 9.77892 1.21554 9.89645 1.84095C10.0579 2.69953 9.83864 3.4529 9.27427 4.09576C8.85765 4.57045 8.3789 4.96951 7.8968 5.36479C7.63225 5.58177 7.36409 5.7937 7.11344 6.02864C7.07531 6.0643 7.05156 6.07542 7.00455 6.03698C6.33632 5.49098 5.65251 4.96572 5.03992 4.34638C4.59356 3.89496 4.26496 3.3783 4.16422 2.72254C4.08123 2.18337 4.14336 1.67303 4.46092 1.22389C4.99075 0.474559 6.22719 0.378964 6.80955 1.30355C6.89542 1.43986 6.96761 1.58426 7.04485 1.75092Z" fill="white"/>
</svg>
