<svg width="27" height="36" viewBox="0 0 27 36" fill="none" xmlns="http://www.w3.org/2000/svg">
<path d="M27 18.0002C27 23.394 27 28.7879 27 34.1818C27 35.1844 26.7009 35.6398 25.8539 35.9152C25.2768 36.1029 24.7667 35.9803 24.3418 35.5314C20.8441 31.8372 17.347 28.1424 13.8499 24.4476C13.6178 24.2024 13.3876 24.2004 13.1591 24.4417C9.69578 28.0986 6.21907 31.7431 2.7791 35.4225C1.96006 36.2984 0.556902 36.1065 0.108615 35.0079C0.0194238 34.7906 0.000186543 34.5655 0.000186543 34.3352C0.000186543 23.458 -0.000979352 12.5814 0.00251833 1.70424C0.00251833 0.644176 0.623941 0.00458549 1.65576 0.00399328C9.61416 -0.000744425 17.572 -0.000744425 25.5298 0.00103221C26.329 0.00103221 26.9277 0.58377 26.9854 1.39806C26.9988 1.58876 26.9994 1.78004 26.9994 1.97132C27 7.31427 27 12.6572 27 18.0002Z" fill="#6FA089"/>
</svg>
