<svg width="27" height="36" viewBox="0 0 27 36" fill="none" xmlns="http://www.w3.org/2000/svg">
<path d="M26.9995 18.0004C26.9995 23.3943 26.9995 28.7882 26.9995 34.182C26.9995 35.1847 26.7005 35.6401 25.8534 35.9154C25.2763 36.1032 24.7662 35.9806 24.3413 35.5317C20.8436 31.8375 17.3465 28.1426 13.8494 24.4478C13.6174 24.2027 13.3871 24.2007 13.1586 24.4419C9.69529 28.0988 6.21859 31.7433 2.77861 35.4227C1.95957 36.2986 0.556413 36.1067 0.108127 35.0082C0.0189355 34.7908 -0.000301738 34.5658 -0.000301738 34.3354C-0.000301738 23.4582 -0.00146763 12.5817 0.00203005 1.70448C0.00203005 0.64442 0.623452 0.00482963 1.65527 0.00423742C9.61367 -0.000500284 17.5715 -0.000500284 25.5293 0.00127635C26.3285 0.00127635 26.9272 0.584014 26.9849 1.39831C26.9983 1.589 26.9989 1.78028 26.9989 1.97157C26.9995 7.31451 26.9989 12.6575 26.9989 18.0004H26.9995Z" fill="#095540"/>
</svg>
